<?xml version="1.0" encoding="UTF-8" standalone="no"?>
<svg
   width="838.08301"
   height="838.08307"
   viewBox="0 0 838.08301 838.08307"
   version="1.1"
   id="svg564"
   sodipodi:docname="lab_logo.svg"
   inkscape:version="1.4 (e7c3feb1, 2024-10-09)"
   inkscape:export-filename="lab_logo_v3.png"
   inkscape:export-xdpi="96"
   inkscape:export-ydpi="96"
   xmlns:inkscape="http://www.inkscape.org/namespaces/inkscape"
   xmlns:sodipodi="http://sodipodi.sourceforge.net/DTD/sodipodi-0.dtd"
   xmlns:xlink="http://www.w3.org/1999/xlink"
   xmlns="http://www.w3.org/2000/svg"
   xmlns:svg="http://www.w3.org/2000/svg">
  <sodipodi:namedview
     id="namedview564"
     pagecolor="#ffffff"
     bordercolor="#000000"
     borderopacity="0.25"
     inkscape:showpageshadow="2"
     inkscape:pageopacity="0.0"
     inkscape:pagecheckerboard="0"
     inkscape:deskcolor="#d1d1d1"
     inkscape:zoom="1"
     inkscape:cx="390"
     inkscape:cy="406.5"
     inkscape:window-width="2736"
     inkscape:window-height="1207"
     inkscape:window-x="0"
     inkscape:window-y="30"
     inkscape:window-maximized="0"
     inkscape:current-layer="svg564"
     inkscape:export-bgcolor="#ffffffff"
     showguides="true" />
  <defs
     id="defs2">
    <linearGradient
       id="linearGradient33"
       inkscape:collect="always">
      <stop
         style="stop-color:#2286ea;stop-opacity:1;"
         offset="0"
         id="stop33" />
      <stop
         style="stop-color:#fbbc30;stop-opacity:0.89411765;"
         offset="0.28240886"
         id="stop35" />
      <stop
         style="stop-color:#ef3d69;stop-opacity:1;"
         offset="0.60935444"
         id="stop36" />
      <stop
         style="stop-color:#8fd300;stop-opacity:1;"
         offset="1"
         id="stop34" />
    </linearGradient>
    <linearGradient
       id="gradient_0"
       gradientUnits="userSpaceOnUse"
       x1="278.8735"
       y1="902.3205"
       x2="744.7644"
       y2="126.59291">
      <stop
         offset="0"
         stop-color="#093552"
         id="stop1" />
      <stop
         offset="1"
         stop-color="#33708C"
         id="stop2" />
    </linearGradient>
    <linearGradient
       inkscape:collect="always"
       xlink:href="#linearGradient33"
       id="linearGradient34"
       x1="-647.80676"
       y1="202.4696"
       x2="-131.58115"
       y2="195.93922"
       gradientUnits="userSpaceOnUse"
       gradientTransform="matrix(0.87408424,0,0,0.85770831,763.56325,250.85858)" />
  </defs>
  <defs
     id="defs5">
    <linearGradient
       id="gradient_1"
       gradientUnits="userSpaceOnUse"
       x1="622.56641"
       y1="519.16394"
       x2="627.19141"
       y2="659.96252"
       gradientTransform="matrix(0.96752579,0,0,0.94491285,-838.09667,30.245421)">
      <stop
         offset="0"
         stop-color="#E5D639"
         id="stop4" />
      <stop
         offset="1"
         stop-color="#A0BD55"
         id="stop5" />
    </linearGradient>
  </defs>
  <defs
     id="defs7">
    <linearGradient
       id="gradient_2"
       gradientUnits="userSpaceOnUse"
       x1="508.88123"
       y1="328.40897"
       x2="619.05115"
       y2="370.32626"
       gradientTransform="matrix(0.96752579,0,0,0.94491285,-838.09667,30.245421)">
      <stop
         offset="0"
         stop-color="#DCD33D"
         id="stop6" />
      <stop
         offset="1"
         stop-color="#98B556"
         id="stop7" />
    </linearGradient>
  </defs>
  <defs
     id="defs9">
    <linearGradient
       id="gradient_3"
       gradientUnits="userSpaceOnUse"
       x1="328.23721"
       y1="521.69836"
       x2="390.9538"
       y2="431.33353"
       gradientTransform="matrix(0.96752579,0,0,0.94491285,-838.09667,30.245421)">
      <stop
         offset="0"
         stop-color="#9DBB4C"
         id="stop8" />
      <stop
         offset="1"
         stop-color="#63966D"
         id="stop9" />
    </linearGradient>
  </defs>
  <defs
     id="defs11">
    <linearGradient
       id="gradient_4"
       gradientUnits="userSpaceOnUse"
       x1="613.39423"
       y1="400.52908"
       x2="642.35431"
       y2="501.8299"
       gradientTransform="matrix(0.96752579,0,0,0.94491285,-838.09667,30.245421)">
      <stop
         offset="0"
         stop-color="#93B757"
         id="stop10" />
      <stop
         offset="1"
         stop-color="#47868D"
         id="stop11" />
    </linearGradient>
  </defs>
  <defs
     id="defs21">
    <linearGradient
       id="gradient_5"
       gradientUnits="userSpaceOnUse"
       x1="416.9407"
       y1="767.99622"
       x2="423.61057"
       y2="815.78839"
       gradientTransform="matrix(0.96752579,0,0,0.94491285,-838.09667,30.245421)">
      <stop
         offset="0"
         stop-color="#45342F"
         id="stop20" />
      <stop
         offset="1"
         stop-color="#3B4043"
         id="stop21" />
    </linearGradient>
  </defs>
  <defs
     id="defs163">
    <linearGradient
       id="gradient_6"
       gradientUnits="userSpaceOnUse"
       x1="704.47675"
       y1="627.1723"
       x2="664.27771"
       y2="644.46942"
       gradientTransform="matrix(0.96752579,0,0,0.94491285,-838.09667,30.245421)">
      <stop
         offset="0"
         stop-color="#9BB22F"
         id="stop162" />
      <stop
         offset="1"
         stop-color="#A4B775"
         id="stop163" />
    </linearGradient>
  </defs>
  <defs
     id="defs178">
    <linearGradient
       id="gradient_7"
       gradientUnits="userSpaceOnUse"
       x1="653.55768"
       y1="632.5191"
       x2="634.23004"
       y2="653.28333"
       gradientTransform="matrix(0.96752579,0,0,0.94491285,-838.09667,30.245421)">
      <stop
         offset="0"
         stop-color="#C8CB42"
         id="stop177" />
      <stop
         offset="1"
         stop-color="#A0BD50"
         id="stop178" />
    </linearGradient>
  </defs>
  <defs
     id="defs202">
    <linearGradient
       id="gradient_8"
       gradientUnits="userSpaceOnUse"
       x1="715.32434"
       y1="672.8457"
       x2="683.44788"
       y2="709.13666"
       gradientTransform="matrix(0.96752579,0,0,0.94491285,-838.09667,30.245421)">
      <stop
         offset="0"
         stop-color="#D1CD40"
         id="stop201" />
      <stop
         offset="1"
         stop-color="#90B857"
         id="stop202" />
    </linearGradient>
  </defs>
  <defs
     id="defs223">
    <linearGradient
       id="gradient_9"
       gradientUnits="userSpaceOnUse"
       x1="757.8139"
       y1="346.14441"
       x2="791.64587"
       y2="330.47397"
       gradientTransform="matrix(0.96752579,0,0,0.94491285,-838.09667,30.245421)">
      <stop
         offset="0"
         stop-color="#5B4B4B"
         id="stop222" />
      <stop
         offset="1"
         stop-color="#8A726A"
         id="stop223" />
    </linearGradient>
  </defs>
  <defs
     id="defs231">
    <linearGradient
       id="gradient_10"
       gradientUnits="userSpaceOnUse"
       x1="802.84259"
       y1="430.49658"
       x2="777.13391"
       y2="428.87585"
       gradientTransform="matrix(0.96752579,0,0,0.94491285,-838.09667,30.245421)">
      <stop
         offset="0"
         stop-color="#427891"
         id="stop230" />
      <stop
         offset="1"
         stop-color="#538FA3"
         id="stop231" />
    </linearGradient>
  </defs>
  <defs
     id="defs314">
    <linearGradient
       id="gradient_11"
       gradientUnits="userSpaceOnUse"
       x1="578.87244"
       y1="282.9158"
       x2="603.54218"
       y2="265.35678"
       gradientTransform="matrix(0.96752579,0,0,0.94491285,-838.09667,30.245421)">
      <stop
         offset="0"
         stop-color="#35667E"
         id="stop313" />
      <stop
         offset="1"
         stop-color="#4D8498"
         id="stop314" />
    </linearGradient>
  </defs>
  <defs
     id="defs316">
    <linearGradient
       id="gradient_12"
       gradientUnits="userSpaceOnUse"
       x1="583.19525"
       y1="308.12143"
       x2="607.94489"
       y2="296.60522"
       gradientTransform="matrix(0.96752579,0,0,0.94491285,-838.09667,30.245421)">
      <stop
         offset="0"
         stop-color="#376A80"
         id="stop315" />
      <stop
         offset="1"
         stop-color="#4E91A6"
         id="stop316" />
    </linearGradient>
  </defs>
  <defs
     id="defs318">
    <linearGradient
       id="gradient_13"
       gradientUnits="userSpaceOnUse"
       x1="589.66394"
       y1="341.4404"
       x2="607.25043"
       y2="321.82788"
       gradientTransform="matrix(0.96752579,0,0,0.94491285,-838.09667,30.245421)">
      <stop
         offset="0"
         stop-color="#30607A"
         id="stop317" />
      <stop
         offset="1"
         stop-color="#448399"
         id="stop318" />
    </linearGradient>
  </defs>
  <defs
     id="defs321">
    <linearGradient
       id="gradient_14"
       gradientUnits="userSpaceOnUse"
       x1="578.237"
       y1="244.82649"
       x2="600.14941"
       y2="247.21564"
       gradientTransform="matrix(0.96752579,0,0,0.94491285,-838.09667,30.245421)">
      <stop
         offset="0"
         stop-color="#366C82"
         id="stop320" />
      <stop
         offset="1"
         stop-color="#538CA1"
         id="stop321" />
    </linearGradient>
  </defs>
  <defs
     id="defs345">
    <linearGradient
       id="gradient_15"
       gradientUnits="userSpaceOnUse"
       x1="341.80469"
       y1="385.41336"
       x2="319.12927"
       y2="348.86859"
       gradientTransform="matrix(0.96752579,0,0,0.94491285,-838.09667,30.245421)">
      <stop
         offset="0"
         stop-color="#625452"
         id="stop344" />
      <stop
         offset="1"
         stop-color="#39647A"
         id="stop345" />
    </linearGradient>
  </defs>
  <defs
     id="defs351">
    <linearGradient
       id="gradient_16"
       gradientUnits="userSpaceOnUse"
       x1="424.38538"
       y1="340.91293"
       x2="446.42062"
       y2="190.41225"
       gradientTransform="matrix(0.96752579,0,0,0.94491285,-838.09667,30.245421)">
      <stop
         offset="0"
         stop-color="#275B77"
         id="stop350" />
      <stop
         offset="1"
         stop-color="#3D829A"
         id="stop351" />
    </linearGradient>
  </defs>
  <defs
     id="defs357">
    <linearGradient
       id="gradient_17"
       gradientUnits="userSpaceOnUse"
       x1="408.13281"
       y1="284.23172"
       x2="401.0636"
       y2="270.64575">
      <stop
         offset="0"
         stop-color="#81615C"
         id="stop356" />
      <stop
         offset="1"
         stop-color="#6C6A6B"
         id="stop357" />
    </linearGradient>
  </defs>
  <defs
     id="defs359">
    <linearGradient
       id="gradient_18"
       gradientUnits="userSpaceOnUse"
       x1="395.58774"
       y1="320.42691"
       x2="375.9176"
       y2="311.68634"
       gradientTransform="matrix(0.96752579,0,0,0.94491285,-838.09667,30.245421)">
      <stop
         offset="0"
         stop-color="#336378"
         id="stop358" />
      <stop
         offset="1"
         stop-color="#4F7A8C"
         id="stop359" />
    </linearGradient>
  </defs>
  <defs
     id="defs374">
    <linearGradient
       id="gradient_19"
       gradientUnits="userSpaceOnUse"
       x1="567.57349"
       y1="752.19275"
       x2="481.01193"
       y2="803.2569"
       gradientTransform="matrix(0.96752579,0,0,0.94491285,-838.09667,30.245421)">
      <stop
         offset="0"
         stop-color="#87AF55"
         id="stop373" />
      <stop
         offset="1"
         stop-color="#488A86"
         id="stop374" />
    </linearGradient>
  </defs>
  <defs
     id="defs376">
    <linearGradient
       id="gradient_20"
       gradientUnits="userSpaceOnUse"
       x1="325.25964"
       y1="443.96695"
       x2="292.60489"
       y2="333.07297"
       gradientTransform="matrix(0.96752579,0,0,0.94491285,-838.09667,30.245421)">
      <stop
         offset="0"
         stop-color="#18405C"
         id="stop375" />
      <stop
         offset="1"
         stop-color="#275E79"
         id="stop376" />
    </linearGradient>
  </defs>
  <defs
     id="defs378">
    <linearGradient
       id="gradient_21"
       gradientUnits="userSpaceOnUse"
       x1="461.81772"
       y1="278.64502"
       x2="473.88083"
       y2="243.90309"
       gradientTransform="matrix(0.96752579,0,0,0.94491285,-838.09667,30.245421)">
      <stop
         offset="0"
         stop-color="#746967"
         id="stop377" />
      <stop
         offset="1"
         stop-color="#5C7883"
         id="stop378" />
    </linearGradient>
  </defs>
  <defs
     id="defs385">
    <linearGradient
       id="gradient_22"
       gradientUnits="userSpaceOnUse"
       x1="280.54388"
       y1="484.58035"
       x2="369.19684"
       y2="463.51553"
       gradientTransform="matrix(0.96752579,0,0,0.94491285,-838.09667,30.245421)">
      <stop
         offset="0"
         stop-color="#9A4F37"
         id="stop384" />
      <stop
         offset="1"
         stop-color="#BA764E"
         id="stop385" />
    </linearGradient>
  </defs>
  <defs
     id="defs389">
    <linearGradient
       id="gradient_23"
       gradientUnits="userSpaceOnUse"
       x1="343.46335"
       y1="464.18829"
       x2="382.8934"
       y2="395.0914"
       gradientTransform="matrix(0.96752579,0,0,0.94491285,-838.09667,30.245421)">
      <stop
         offset="0"
         stop-color="#113E59"
         id="stop388" />
      <stop
         offset="1"
         stop-color="#41697D"
         id="stop389" />
    </linearGradient>
  </defs>
  <defs
     id="defs391">
    <linearGradient
       id="gradient_24"
       gradientUnits="userSpaceOnUse"
       x1="303.33411"
       y1="235.51877"
       x2="372.18927"
       y2="219.44008"
       gradientTransform="matrix(0.96752579,0,0,0.94491285,-838.09667,30.245421)">
      <stop
         offset="0"
         stop-color="#18425D"
         id="stop390" />
      <stop
         offset="1"
         stop-color="#306782"
         id="stop391" />
    </linearGradient>
  </defs>
  <defs
     id="defs400">
    <linearGradient
       id="gradient_25"
       gradientUnits="userSpaceOnUse"
       x1="776.97437"
       y1="713.98004"
       x2="758.97205"
       y2="737.08875"
       gradientTransform="matrix(0.96752579,0,0,0.94491285,-838.09667,30.245421)">
      <stop
         offset="0"
         stop-color="#DDD13C"
         id="stop399" />
      <stop
         offset="1"
         stop-color="#B2C54D"
         id="stop400" />
    </linearGradient>
  </defs>
  <defs
     id="defs434">
    <linearGradient
       id="gradient_26"
       gradientUnits="userSpaceOnUse"
       x1="395.35977"
       y1="267.63287"
       x2="424.90726"
       y2="261.08167"
       gradientTransform="matrix(0.96752579,0,0,0.94491285,-838.09667,30.245421)">
      <stop
         offset="0"
         stop-color="#4A6371"
         id="stop433" />
      <stop
         offset="1"
         stop-color="#377991"
         id="stop434" />
    </linearGradient>
  </defs>
  <defs
     id="defs481">
    <linearGradient
       id="gradient_27"
       gradientUnits="userSpaceOnUse"
       x1="356.26559"
       y1="425.21335"
       x2="374.32184"
       y2="436.14218"
       gradientTransform="matrix(0.96752579,0,0,0.94491285,-838.09667,30.245421)">
      <stop
         offset="0"
         stop-color="#706869"
         id="stop480" />
      <stop
         offset="1"
         stop-color="#496474"
         id="stop481" />
    </linearGradient>
  </defs>
  <defs
     id="defs501">
    <linearGradient
       id="gradient_28"
       gradientUnits="userSpaceOnUse"
       x1="395.13849"
       y1="422.35019"
       x2="385.59171"
       y2="412.89743"
       gradientTransform="matrix(0.96752579,0,0,0.94491285,-838.09667,30.245421)">
      <stop
         offset="0"
         stop-color="#9E745D"
         id="stop500" />
      <stop
         offset="1"
         stop-color="#836963"
         id="stop501" />
    </linearGradient>
  </defs>
  <circle
     style="fill:#4d4d4d;stroke:#000000;stroke-width:18.1417;stroke-dasharray:none"
     id="path1"
     cx="419.0415"
     cy="419.04153"
     r="399.82031" />
  <path
     id="path2"
     style="fill:url(#linearGradient34);stroke:none;stroke-width:3.20366;stroke-dasharray:none"
     d="m 496.09347,141.12218 a 21.801243,21.392797 0 0 0 -21.80092,21.39245 21.801243,21.392797 0 0 0 5.00553,13.59099 l -34.93607,44.07816 a 21.801243,21.392797 0 0 0 -12.0767,-3.58329 21.801243,21.392797 0 0 0 -21.80089,21.39247 21.801243,21.392797 0 0 0 0.30388,3.41072 l -37.65392,10.7934 a 21.801243,21.392797 0 0 0 -17.76848,-9.00763 21.801243,21.392797 0 0 0 -0.70166,0.0485 l -8.48477,-44.68961 a 21.801243,21.392797 0 0 0 13.50564,-19.7373 21.801243,21.392797 0 0 0 -21.8009,-21.39245 21.801243,21.392797 0 0 0 -21.8009,21.39245 21.801243,21.392797 0 0 0 4.13144,12.44514 l -40.51176,61.48699 a 21.801243,21.392797 0 0 0 -6.50101,-0.97665 21.801243,21.392797 0 0 0 -17.0139,8.08791 l -51.94315,-28.54395 a 21.801243,21.392797 0 0 0 0.72728,-5.3255 21.801243,21.392797 0 0 0 -21.80091,-21.39244 21.801243,21.392797 0 0 0 -21.80087,21.39244 21.801243,21.392797 0 0 0 21.80087,21.39247 21.801243,21.392797 0 0 0 17.21708,-8.35429 l 51.81509,28.4719 a 21.801243,21.392797 0 0 0 -0.80238,5.6639 21.801243,21.392797 0 0 0 21.80089,21.39244 21.801243,21.392797 0 0 0 21.8009,-21.39244 21.801243,21.392797 0 0 0 -7.6363,-16.25459 l 39.37306,-59.75312 a 21.801243,21.392797 0 0 0 10.85777,3.03214 l 8.54792,45.02633 a 21.801243,21.392797 0 0 0 -12.58032,19.37215 21.801243,21.392797 0 0 0 2.25863,9.40631 l -67.51107,65.0652 a 21.801243,21.392797 0 0 0 -9.97001,-2.37377 21.801243,21.392797 0 0 0 -21.8009,21.39246 21.801243,21.392797 0 0 0 21.8009,21.39245 21.801243,21.392797 0 0 0 21.20849,-16.67506 l 44.60559,4.12941 a 21.801243,21.392797 0 0 0 21.59434,18.5496 21.801243,21.392797 0 0 0 21.80088,-21.39244 21.801243,21.392797 0 0 0 -13.07029,-19.59495 l 2.46861,-58.61732 a 21.801243,21.392797 0 0 0 20.2166,-21.28189 21.801243,21.392797 0 0 0 -0.48483,-4.46612 l 37.20321,-10.66439 a 21.801243,21.392797 0 0 0 11.95208,8.95567 l -7.67044,69.88815 a 21.801243,21.392797 0 0 0 -19.04547,21.1998 21.801243,21.392797 0 0 0 21.80088,21.39246 21.801243,21.392797 0 0 0 21.8009,-21.39246 21.801243,21.392797 0 0 0 -3.45537,-11.54723 l 58.43049,-59.03947 a 21.801243,21.392797 0 0 0 10.6324,2.7775 21.801243,21.392797 0 0 0 16.78686,-7.78976 l 66.91353,43.96931 a 21.801243,21.392797 0 0 0 -1.48525,7.61382 21.801243,21.392797 0 0 0 21.80089,21.39246 21.801243,21.392797 0 0 0 21.8009,-21.39246 21.801243,21.392797 0 0 0 -8.63501,-17.04528 l 36.23181,-67.82595 a 21.801243,21.392797 0 0 0 5.6696,0.76556 21.801243,21.392797 0 0 0 0.22024,-0.015 l 24.80555,146.04326 a 21.801243,21.392797 0 0 0 -15.35964,20.4175 21.801243,21.392797 0 0 0 0.27143,3.27002 l -49.91157,12.83713 a 21.801243,21.392797 0 0 0 -19.46373,-11.76835 21.801243,21.392797 0 0 0 -5.92396,0.81919 L 573.83745,372.8324 a 21.801243,21.392797 0 0 0 5.2428,-13.90256 21.801243,21.392797 0 0 0 -21.8009,-21.39247 21.801243,21.392797 0 0 0 -21.59602,18.58314 l -29.54814,3.10752 a 21.801243,21.392797 0 0 0 -18.78257,-10.54044 21.801243,21.392797 0 0 0 -21.80089,21.39246 21.801243,21.392797 0 0 0 0.0513,0.69186 l -98.26278,47.87419 a 21.801243,21.392797 0 0 0 -13.72245,-4.77268 21.801243,21.392797 0 0 0 -19.22983,11.42661 l -51.0742,-1.40383 a 21.801243,21.392797 0 0 0 -21.47482,-17.74216 21.801243,21.392797 0 0 0 -14.21583,5.17976 l -65.52727,-55.45287 a 21.801243,21.392797 0 0 0 1.73279,-8.2638 21.801243,21.392797 0 0 0 -21.80089,-21.39246 21.801243,21.392797 0 0 0 -21.80088,21.39246 21.801243,21.392797 0 0 0 21.80088,21.39244 21.801243,21.392797 0 0 0 0.66753,-0.047 l 3.98118,38.64712 a 21.801243,21.392797 0 0 0 -14.04683,19.93672 21.801243,21.392797 0 0 0 21.8009,21.39246 21.801243,21.392797 0 0 0 18.89696,-10.82524 l 33.41322,16.29145 -75.96168,60.04459 a 21.801243,21.392797 0 0 0 -12.18594,-3.65531 21.801243,21.392797 0 0 0 -21.8009,21.39247 21.801243,21.392797 0 0 0 21.8009,21.39243 21.801243,21.392797 0 0 0 8.58206,-1.75896 l 58.34342,57.24868 a 21.801243,21.392797 0 0 0 -1.31796,7.17325 21.801243,21.392797 0 0 0 21.80089,21.39246 21.801243,21.392797 0 0 0 21.80088,-21.39246 21.801243,21.392797 0 0 0 -19.35107,-21.25173 l 6.89879,-48.29133 a 21.801243,21.392797 0 0 0 0.26632,0.0184 21.801243,21.392797 0 0 0 10.56242,-2.74065 l 45.04432,43.17186 a 21.801243,21.392797 0 0 0 -2.23643,9.3661 21.801243,21.392797 0 0 0 21.80089,21.39244 21.801243,21.392797 0 0 0 21.8009,-21.39244 21.801243,21.392797 0 0 0 -0.87408,-5.98219 l 23.13249,-12.88404 a 21.801243,21.392797 0 0 0 9.02082,7.47646 l -34.19171,82.14401 a 21.801243,21.392797 0 0 0 -4.02898,-0.37191 21.801243,21.392797 0 0 0 -21.80089,21.39245 21.801243,21.392797 0 0 0 21.80089,21.39245 21.801243,21.392797 0 0 0 20.91827,-15.36673 l 87.91374,7.23527 a 21.801243,21.392797 0 0 0 21.40653,17.56625 21.801243,21.392797 0 0 0 21.8009,-21.39245 21.801243,21.392797 0 0 0 -21.8009,-21.39244 21.801243,21.392797 0 0 0 -3.54243,0.31159 l -16.96104,-27.86041 a 21.801243,21.392797 0 0 0 7.41434,-8.03263 l 82.30732,11.37469 a 21.801243,21.392797 0 0 0 21.68651,19.81775 21.801243,21.392797 0 0 0 21.80089,-21.39246 21.801243,21.392797 0 0 0 -3.14977,-11.07147 l 59.67673,-48.70677 a 21.801243,21.392797 0 0 0 12.5769,3.97695 21.801243,21.392797 0 0 0 21.80091,-21.39244 21.801243,21.392797 0 0 0 -21.80091,-21.39248 21.801243,21.392797 0 0 0 -14.3575,5.30375 l -55.14754,-41.74629 a 21.801243,21.392797 0 0 0 3.02344,-10.78166 21.801243,21.392797 0 0 0 -21.80089,-21.39245 21.801243,21.392797 0 0 0 -8.90474,1.87791 l -16.48468,-27.46174 a 21.801243,21.392797 0 0 0 6.10836,-14.77871 21.801243,21.392797 0 0 0 -21.20679,-21.37905 L 497.4797,388.96631 a 21.801243,21.392797 0 0 0 11.67382,-18.88633 21.801243,21.392797 0 0 0 -0.15878,-2.52622 l 27.30488,-2.87132 a 21.801243,21.392797 0 0 0 20.97973,15.63978 21.801243,21.392797 0 0 0 9.62859,-2.23976 l 27.33903,38.8984 a 21.801243,21.392797 0 0 0 -8.07163,16.56953 21.801243,21.392797 0 0 0 21.8009,21.39246 21.801243,21.392797 0 0 0 21.80089,-21.39246 21.801243,21.392797 0 0 0 -0.0479,-1.34521 l 50.69005,-13.03815 a 21.801243,21.392797 0 0 0 18.46162,10.04457 21.801243,21.392797 0 0 0 21.80089,-21.39247 21.801243,21.392797 0 0 0 -19.5269,-21.2735 L 676.18724,239.5442 a 21.801243,21.392797 0 0 0 13.02763,-19.56313 21.801243,21.392797 0 0 0 -21.80091,-21.39244 21.801243,21.392797 0 0 0 -21.80089,21.39244 21.801243,21.392797 0 0 0 8.32941,16.75882 l -36.31717,67.98512 a 21.801243,21.392797 0 0 0 -5.27865,-0.63827 21.801243,21.392797 0 0 0 -15.61914,6.54172 l -67.47179,-44.33449 a 21.801243,21.392797 0 0 0 0.87581,-6.0006 21.801243,21.392797 0 0 0 -0.52924,-4.65709 l 31.75213,-21.20651 a 21.801243,21.392797 0 0 0 15.15478,6.08606 21.801243,21.392797 0 0 0 21.8009,-21.39246 21.801243,21.392797 0 0 0 -21.8009,-21.39245 21.801243,21.392797 0 0 0 -14.47872,5.42267 l -45.49506,-33.36017 a 21.801243,21.392797 0 0 0 1.35892,-7.27879 21.801243,21.392797 0 0 0 -21.80088,-21.39245 z m 15.853,36.01368 44.84974,32.88777 a 21.801243,21.392797 0 0 0 -2.08791,9.09974 21.801243,21.392797 0 0 0 1.71746,8.22529 l -30.47687,20.35214 a 21.801243,21.392797 0 0 0 -17.61826,-8.79988 21.801243,21.392797 0 0 0 -19.60202,12.09335 l -34.75167,-11.50536 a 21.801243,21.392797 0 0 0 0.10927,-1.49595 21.801243,21.392797 0 0 0 -3.52708,-11.6578 l 35.55405,-44.85547 a 21.801243,21.392797 0 0 0 9.98029,2.4274 21.801243,21.392797 0 0 0 15.853,-6.77123 z m -60.32205,70.6286 34.97531,11.57572 a 21.801243,21.392797 0 0 0 -0.07,0.95319 21.801243,21.392797 0 0 0 4.54797,12.99126 l -57.90974,58.51515 a 21.801243,21.392797 0 0 0 -6.27906,-2.87299 l 7.64994,-69.69885 a 21.801243,21.392797 0 0 0 17.08564,-11.46348 z M 341.1996,280.82979 a 21.801243,21.392797 0 0 0 7.049,3.92166 l -2.43958,57.93385 a 21.801243,21.392797 0 0 0 -0.0581,-0.002 21.801243,21.392797 0 0 0 -20.98658,15.67664 l -44.98629,-4.16626 a 21.801243,21.392797 0 0 0 -4.61114,-9.72627 z m -164.08713,82.16243 65.18073,55.15466 a 21.801243,21.392797 0 0 0 -2.25521,9.3996 21.801243,21.392797 0 0 0 4.4336,12.84218 l -10.23635,8.09293 -38.17289,-18.61326 a 21.801243,21.392797 0 0 0 0.16901,-2.32185 21.801243,21.392797 0 0 0 -20.91656,-21.37234 l -4.04094,-39.19994 a 21.801243,21.392797 0 0 0 5.83861,-3.98198 z m 285.52677,18.79922 -25.21357,30.61114 a 21.801243,21.392797 0 0 0 -6.88854,-1.10229 21.801243,21.392797 0 0 0 -21.65576,19.40564 l -33.7359,1.21117 a 21.801243,21.392797 0 0 0 -2.15447,-6.44955 z m 8.85011,2.89979 a 21.801243,21.392797 0 0 0 15.86327,6.78124 21.801243,21.392797 0 0 0 1.71914,-0.1206 l 11.15823,31.824 a 21.801243,21.392797 0 0 0 -12.8603,13.97795 l -35.06581,-5.61698 a 21.801243,21.392797 0 0 0 -7.22485,-14.77871 z m -188.48636,47.77535 48.91971,1.34687 a 21.801243,21.392797 0 0 0 -0.1058,1.45241 21.801243,21.392797 0 0 0 21.80088,21.39246 21.801243,21.392797 0 0 0 9.79248,-2.32688 l 39.88181,44.28422 a 21.801243,21.392797 0 0 0 -2.20058,4.68054 l -65.12611,-10.64931 a 21.801243,21.392797 0 0 0 0.11951,-1.62999 21.801243,21.392797 0 0 0 -21.80089,-21.39246 21.801243,21.392797 0 0 0 -17.85044,9.1852 l -40.07471,-19.54135 3.38878,-10.47677 a 21.801243,21.392797 0 0 0 2.09131,0.14742 21.801243,21.392797 0 0 0 21.16411,-16.47236 z m 126.81904,6.78796 a 21.801243,21.392797 0 0 0 20.7151,14.83064 21.801243,21.392797 0 0 0 0.66753,-0.047 l 28.27628,50.97501 -16.30543,0.68683 a 21.801243,21.392797 0 0 0 -21.37922,-17.20608 21.801243,21.392797 0 0 0 -12.45399,3.8865 L 370.2902,449.0176 a 21.801243,21.392797 0 0 0 4.41822,-8.50338 z m 41.14171,0.75888 35.76746,5.73088 a 21.801243,21.392797 0 0 0 9.77029,15.2059 l -21.09583,43.39468 -6.19884,0.25966 -29.21353,-52.6653 a 21.801243,21.392797 0 0 0 10.97045,-11.92582 z m -199.81873,6.11619 a 21.801243,21.392797 0 0 0 0.25095,0.13402 l -2.95685,9.14329 -5.58595,-2.72389 z m -15.78644,12.47864 10.40365,5.07255 -13.08223,40.45804 a 21.801243,21.392797 0 0 0 -18.86453,21.18639 21.801243,21.392797 0 0 0 12.97128,19.54134 l -7.2846,50.98003 a 21.801243,21.392797 0 0 0 -9.28373,5.70577 l -55.7809,-54.73586 a 21.801243,21.392797 0 0 0 5.95639,-14.6296 21.801243,21.392797 0 0 0 -3.47413,-11.57572 z m 281.45513,4.04565 16.58198,27.62591 a 21.801243,21.392797 0 0 0 -5.59447,11.8605 l -42.50918,1.78743 19.39203,-39.88343 a 21.801243,21.392797 0 0 0 3.64657,0.33338 21.801243,21.392797 0 0 0 8.48307,-1.72379 z m -263.13009,4.88827 39.30135,19.16274 a 21.801243,21.392797 0 0 0 -0.50191,4.31199 21.801243,21.392797 0 0 0 0.4268,3.96858 l -41.50534,15.59789 a 21.801243,21.392797 0 0 0 -9.76005,-5.81131 z m 79.85238,33.40036 66.60111,10.8939 a 21.801243,21.392797 0 0 0 6.61027,13.46033 l -20.56658,23.42279 a 21.801243,21.392797 0 0 0 -13.33321,-4.47449 21.801243,21.392797 0 0 0 -7.57142,1.38875 l -34.5912,-40.53342 a 21.801243,21.392797 0 0 0 2.85103,-4.15786 z m -37.32613,1.98847 a 21.801243,21.392797 0 0 0 18.07409,9.47836 21.801243,21.392797 0 0 0 9.41859,-2.12752 l 34.0944,39.94708 a 21.801243,21.392797 0 0 0 -6.75025,15.40859 21.801243,21.392797 0 0 0 0.43876,4.02218 l -23.84783,13.28109 a 21.801243,21.392797 0 0 0 -16.85001,-7.81821 21.801243,21.392797 0 0 0 -14.20559,5.17305 l -43.74859,-41.93054 a 21.801243,21.392797 0 0 0 4.58382,-13.03985 21.801243,21.392797 0 0 0 -1.31795,-7.32068 z m 232.2691,7.76629 a 21.801243,21.392797 0 0 0 3.71656,7.08111 l -21.96648,30.90932 a 21.801243,21.392797 0 0 0 -10.63925,-2.72724 21.801243,21.392797 0 0 0 -6.82536,1.11569 l -15.16161,-27.33274 3.42975,-7.05098 z m -64.34421,2.70546 3.65852,6.59699 -43.48739,89.44959 a 21.801243,21.392797 0 0 0 -0.76141,-0.0184 21.801243,21.392797 0 0 0 -21.80089,21.39246 21.801243,21.392797 0 0 0 21.80089,21.39245 21.801243,21.392797 0 0 0 3.55268,-0.31327 l 16.95928,27.85541 a 21.801243,21.392797 0 0 0 -9.3691,13.20234 l -87.39646,-7.19334 a 21.801243,21.392797 0 0 0 -9.52274,-15.25787 l 34.75849,-83.50091 a 21.801243,21.392797 0 0 0 0.32096,0.0217 21.801243,21.392797 0 0 0 21.80089,-21.39247 21.801243,21.392797 0 0 0 -2.71444,-10.32767 l 22.31134,-25.41295 a 21.801243,21.392797 0 0 0 7.55092,1.38204 21.801243,21.392797 0 0 0 21.2785,-16.99168 z m 98.18594,8.51006 55.74337,42.19691 a 21.801243,21.392797 0 0 0 -2.16985,9.24718 21.801243,21.392797 0 0 0 3.23001,11.15021 L 559.497,633.17367 a 21.801243,21.392797 0 0 0 -12.70666,-4.01549 21.801243,21.392797 0 0 0 -20.57341,14.46044 l -80.98766,-11.19376 a 21.801243,21.392797 0 0 0 0.11609,-1.60151 21.801243,21.392797 0 0 0 -12.36862,-19.28337 l 39.9791,-82.23445 12.21499,22.01898 a 21.801243,21.392797 0 0 0 -7.38193,16.02843 21.801243,21.392797 0 0 0 21.80089,21.39246 21.801243,21.392797 0 0 0 21.8009,-21.39246 21.801243,21.392797 0 0 0 -4.51383,-13.02478 l 21.98186,-30.9311 a 21.801243,21.392797 0 0 0 10.55388,2.73562 21.801243,21.392797 0 0 0 12.90809,-4.21987 z" />
</svg>
