<?xml version="1.0" encoding="UTF-8" standalone="no"?>
<svg
   width="838.08301"
   height="838.08307"
   viewBox="0 0 838.08301 838.08307"
   version="1.1"
   id="svg564"
   sodipodi:docname="lab_logo.svg"
   inkscape:version="1.4 (e7c3feb1, 2024-10-09)"
   inkscape:export-filename="lab_logo_v3.png"
   inkscape:export-xdpi="96"
   inkscape:export-ydpi="96"
   xmlns:inkscape="http://www.inkscape.org/namespaces/inkscape"
   xmlns:sodipodi="http://sodipodi.sourceforge.net/DTD/sodipodi-0.dtd"
   xmlns:xlink="http://www.w3.org/1999/xlink"
   xmlns="http://www.w3.org/2000/svg"
   xmlns:svg="http://www.w3.org/2000/svg">
  <sodipodi:namedview
     id="namedview564"
     pagecolor="#ffffff"
     bordercolor="#000000"
     borderopacity="0.25"
     inkscape:showpageshadow="2"
     inkscape:pageopacity="0.0"
     inkscape:pagecheckerboard="0"
     inkscape:deskcolor="#d1d1d1"
     inkscape:zoom="1"
     inkscape:cx="391"
     inkscape:cy="407"
     inkscape:window-width="3440"
     inkscape:window-height="1302"
     inkscape:window-x="0"
     inkscape:window-y="30"
     inkscape:window-maximized="1"
     inkscape:current-layer="svg564"
     inkscape:export-bgcolor="#ffffffff"
     showguides="true" />
  <defs
     id="defs2">
    <linearGradient
       id="linearGradient33"
       inkscape:collect="always">
      <stop
         style="stop-color:#2286ea;stop-opacity:1;"
         offset="0"
         id="stop33" />
      <stop
         style="stop-color:#fbbc30;stop-opacity:0.89411765;"
         offset="0.30544746"
         id="stop35" />
      <stop
         style="stop-color:#ef3d69;stop-opacity:1;"
         offset="0.7373541"
         id="stop36" />
      <stop
         style="stop-color:#8fd300;stop-opacity:1;"
         offset="1"
         id="stop34" />
    </linearGradient>
    <linearGradient
       id="gradient_0"
       gradientUnits="userSpaceOnUse"
       x1="278.8735"
       y1="902.3205"
       x2="744.7644"
       y2="126.59291">
      <stop
         offset="0"
         stop-color="#093552"
         id="stop1" />
      <stop
         offset="1"
         stop-color="#33708C"
         id="stop2" />
    </linearGradient>
    <linearGradient
       inkscape:collect="always"
       xlink:href="#linearGradient33"
       id="linearGradient34"
       x1="-741.79141"
       y1="209"
       x2="-47.208594"
       y2="209"
       gradientUnits="userSpaceOnUse"
       gradientTransform="matrix(0.96162831,0,0,0.96162831,798.40385,218.06121)" />
  </defs>
  <defs
     id="defs5">
    <linearGradient
       id="gradient_1"
       gradientUnits="userSpaceOnUse"
       x1="622.56641"
       y1="519.16394"
       x2="627.19141"
       y2="659.96252"
       gradientTransform="matrix(0.96752579,0,0,0.94491285,-838.09667,30.245421)">
      <stop
         offset="0"
         stop-color="#E5D639"
         id="stop4" />
      <stop
         offset="1"
         stop-color="#A0BD55"
         id="stop5" />
    </linearGradient>
  </defs>
  <defs
     id="defs7">
    <linearGradient
       id="gradient_2"
       gradientUnits="userSpaceOnUse"
       x1="508.88123"
       y1="328.40897"
       x2="619.05115"
       y2="370.32626"
       gradientTransform="matrix(0.96752579,0,0,0.94491285,-838.09667,30.245421)">
      <stop
         offset="0"
         stop-color="#DCD33D"
         id="stop6" />
      <stop
         offset="1"
         stop-color="#98B556"
         id="stop7" />
    </linearGradient>
  </defs>
  <defs
     id="defs9">
    <linearGradient
       id="gradient_3"
       gradientUnits="userSpaceOnUse"
       x1="328.23721"
       y1="521.69836"
       x2="390.9538"
       y2="431.33353"
       gradientTransform="matrix(0.96752579,0,0,0.94491285,-838.09667,30.245421)">
      <stop
         offset="0"
         stop-color="#9DBB4C"
         id="stop8" />
      <stop
         offset="1"
         stop-color="#63966D"
         id="stop9" />
    </linearGradient>
  </defs>
  <defs
     id="defs11">
    <linearGradient
       id="gradient_4"
       gradientUnits="userSpaceOnUse"
       x1="613.39423"
       y1="400.52908"
       x2="642.35431"
       y2="501.8299"
       gradientTransform="matrix(0.96752579,0,0,0.94491285,-838.09667,30.245421)">
      <stop
         offset="0"
         stop-color="#93B757"
         id="stop10" />
      <stop
         offset="1"
         stop-color="#47868D"
         id="stop11" />
    </linearGradient>
  </defs>
  <defs
     id="defs21">
    <linearGradient
       id="gradient_5"
       gradientUnits="userSpaceOnUse"
       x1="416.9407"
       y1="767.99622"
       x2="423.61057"
       y2="815.78839"
       gradientTransform="matrix(0.96752579,0,0,0.94491285,-838.09667,30.245421)">
      <stop
         offset="0"
         stop-color="#45342F"
         id="stop20" />
      <stop
         offset="1"
         stop-color="#3B4043"
         id="stop21" />
    </linearGradient>
  </defs>
  <defs
     id="defs163">
    <linearGradient
       id="gradient_6"
       gradientUnits="userSpaceOnUse"
       x1="704.47675"
       y1="627.1723"
       x2="664.27771"
       y2="644.46942"
       gradientTransform="matrix(0.96752579,0,0,0.94491285,-838.09667,30.245421)">
      <stop
         offset="0"
         stop-color="#9BB22F"
         id="stop162" />
      <stop
         offset="1"
         stop-color="#A4B775"
         id="stop163" />
    </linearGradient>
  </defs>
  <defs
     id="defs178">
    <linearGradient
       id="gradient_7"
       gradientUnits="userSpaceOnUse"
       x1="653.55768"
       y1="632.5191"
       x2="634.23004"
       y2="653.28333"
       gradientTransform="matrix(0.96752579,0,0,0.94491285,-838.09667,30.245421)">
      <stop
         offset="0"
         stop-color="#C8CB42"
         id="stop177" />
      <stop
         offset="1"
         stop-color="#A0BD50"
         id="stop178" />
    </linearGradient>
  </defs>
  <defs
     id="defs202">
    <linearGradient
       id="gradient_8"
       gradientUnits="userSpaceOnUse"
       x1="715.32434"
       y1="672.8457"
       x2="683.44788"
       y2="709.13666"
       gradientTransform="matrix(0.96752579,0,0,0.94491285,-838.09667,30.245421)">
      <stop
         offset="0"
         stop-color="#D1CD40"
         id="stop201" />
      <stop
         offset="1"
         stop-color="#90B857"
         id="stop202" />
    </linearGradient>
  </defs>
  <defs
     id="defs223">
    <linearGradient
       id="gradient_9"
       gradientUnits="userSpaceOnUse"
       x1="757.8139"
       y1="346.14441"
       x2="791.64587"
       y2="330.47397"
       gradientTransform="matrix(0.96752579,0,0,0.94491285,-838.09667,30.245421)">
      <stop
         offset="0"
         stop-color="#5B4B4B"
         id="stop222" />
      <stop
         offset="1"
         stop-color="#8A726A"
         id="stop223" />
    </linearGradient>
  </defs>
  <defs
     id="defs231">
    <linearGradient
       id="gradient_10"
       gradientUnits="userSpaceOnUse"
       x1="802.84259"
       y1="430.49658"
       x2="777.13391"
       y2="428.87585"
       gradientTransform="matrix(0.96752579,0,0,0.94491285,-838.09667,30.245421)">
      <stop
         offset="0"
         stop-color="#427891"
         id="stop230" />
      <stop
         offset="1"
         stop-color="#538FA3"
         id="stop231" />
    </linearGradient>
  </defs>
  <defs
     id="defs314">
    <linearGradient
       id="gradient_11"
       gradientUnits="userSpaceOnUse"
       x1="578.87244"
       y1="282.9158"
       x2="603.54218"
       y2="265.35678"
       gradientTransform="matrix(0.96752579,0,0,0.94491285,-838.09667,30.245421)">
      <stop
         offset="0"
         stop-color="#35667E"
         id="stop313" />
      <stop
         offset="1"
         stop-color="#4D8498"
         id="stop314" />
    </linearGradient>
  </defs>
  <defs
     id="defs316">
    <linearGradient
       id="gradient_12"
       gradientUnits="userSpaceOnUse"
       x1="583.19525"
       y1="308.12143"
       x2="607.94489"
       y2="296.60522"
       gradientTransform="matrix(0.96752579,0,0,0.94491285,-838.09667,30.245421)">
      <stop
         offset="0"
         stop-color="#376A80"
         id="stop315" />
      <stop
         offset="1"
         stop-color="#4E91A6"
         id="stop316" />
    </linearGradient>
  </defs>
  <defs
     id="defs318">
    <linearGradient
       id="gradient_13"
       gradientUnits="userSpaceOnUse"
       x1="589.66394"
       y1="341.4404"
       x2="607.25043"
       y2="321.82788"
       gradientTransform="matrix(0.96752579,0,0,0.94491285,-838.09667,30.245421)">
      <stop
         offset="0"
         stop-color="#30607A"
         id="stop317" />
      <stop
         offset="1"
         stop-color="#448399"
         id="stop318" />
    </linearGradient>
  </defs>
  <defs
     id="defs321">
    <linearGradient
       id="gradient_14"
       gradientUnits="userSpaceOnUse"
       x1="578.237"
       y1="244.82649"
       x2="600.14941"
       y2="247.21564"
       gradientTransform="matrix(0.96752579,0,0,0.94491285,-838.09667,30.245421)">
      <stop
         offset="0"
         stop-color="#366C82"
         id="stop320" />
      <stop
         offset="1"
         stop-color="#538CA1"
         id="stop321" />
    </linearGradient>
  </defs>
  <defs
     id="defs345">
    <linearGradient
       id="gradient_15"
       gradientUnits="userSpaceOnUse"
       x1="341.80469"
       y1="385.41336"
       x2="319.12927"
       y2="348.86859"
       gradientTransform="matrix(0.96752579,0,0,0.94491285,-838.09667,30.245421)">
      <stop
         offset="0"
         stop-color="#625452"
         id="stop344" />
      <stop
         offset="1"
         stop-color="#39647A"
         id="stop345" />
    </linearGradient>
  </defs>
  <defs
     id="defs351">
    <linearGradient
       id="gradient_16"
       gradientUnits="userSpaceOnUse"
       x1="424.38538"
       y1="340.91293"
       x2="446.42062"
       y2="190.41225"
       gradientTransform="matrix(0.96752579,0,0,0.94491285,-838.09667,30.245421)">
      <stop
         offset="0"
         stop-color="#275B77"
         id="stop350" />
      <stop
         offset="1"
         stop-color="#3D829A"
         id="stop351" />
    </linearGradient>
  </defs>
  <defs
     id="defs357">
    <linearGradient
       id="gradient_17"
       gradientUnits="userSpaceOnUse"
       x1="408.13281"
       y1="284.23172"
       x2="401.0636"
       y2="270.64575">
      <stop
         offset="0"
         stop-color="#81615C"
         id="stop356" />
      <stop
         offset="1"
         stop-color="#6C6A6B"
         id="stop357" />
    </linearGradient>
  </defs>
  <defs
     id="defs359">
    <linearGradient
       id="gradient_18"
       gradientUnits="userSpaceOnUse"
       x1="395.58774"
       y1="320.42691"
       x2="375.9176"
       y2="311.68634"
       gradientTransform="matrix(0.96752579,0,0,0.94491285,-838.09667,30.245421)">
      <stop
         offset="0"
         stop-color="#336378"
         id="stop358" />
      <stop
         offset="1"
         stop-color="#4F7A8C"
         id="stop359" />
    </linearGradient>
  </defs>
  <defs
     id="defs374">
    <linearGradient
       id="gradient_19"
       gradientUnits="userSpaceOnUse"
       x1="567.57349"
       y1="752.19275"
       x2="481.01193"
       y2="803.2569"
       gradientTransform="matrix(0.96752579,0,0,0.94491285,-838.09667,30.245421)">
      <stop
         offset="0"
         stop-color="#87AF55"
         id="stop373" />
      <stop
         offset="1"
         stop-color="#488A86"
         id="stop374" />
    </linearGradient>
  </defs>
  <defs
     id="defs376">
    <linearGradient
       id="gradient_20"
       gradientUnits="userSpaceOnUse"
       x1="325.25964"
       y1="443.96695"
       x2="292.60489"
       y2="333.07297"
       gradientTransform="matrix(0.96752579,0,0,0.94491285,-838.09667,30.245421)">
      <stop
         offset="0"
         stop-color="#18405C"
         id="stop375" />
      <stop
         offset="1"
         stop-color="#275E79"
         id="stop376" />
    </linearGradient>
  </defs>
  <defs
     id="defs378">
    <linearGradient
       id="gradient_21"
       gradientUnits="userSpaceOnUse"
       x1="461.81772"
       y1="278.64502"
       x2="473.88083"
       y2="243.90309"
       gradientTransform="matrix(0.96752579,0,0,0.94491285,-838.09667,30.245421)">
      <stop
         offset="0"
         stop-color="#746967"
         id="stop377" />
      <stop
         offset="1"
         stop-color="#5C7883"
         id="stop378" />
    </linearGradient>
  </defs>
  <defs
     id="defs385">
    <linearGradient
       id="gradient_22"
       gradientUnits="userSpaceOnUse"
       x1="280.54388"
       y1="484.58035"
       x2="369.19684"
       y2="463.51553"
       gradientTransform="matrix(0.96752579,0,0,0.94491285,-838.09667,30.245421)">
      <stop
         offset="0"
         stop-color="#9A4F37"
         id="stop384" />
      <stop
         offset="1"
         stop-color="#BA764E"
         id="stop385" />
    </linearGradient>
  </defs>
  <defs
     id="defs389">
    <linearGradient
       id="gradient_23"
       gradientUnits="userSpaceOnUse"
       x1="343.46335"
       y1="464.18829"
       x2="382.8934"
       y2="395.0914"
       gradientTransform="matrix(0.96752579,0,0,0.94491285,-838.09667,30.245421)">
      <stop
         offset="0"
         stop-color="#113E59"
         id="stop388" />
      <stop
         offset="1"
         stop-color="#41697D"
         id="stop389" />
    </linearGradient>
  </defs>
  <defs
     id="defs391">
    <linearGradient
       id="gradient_24"
       gradientUnits="userSpaceOnUse"
       x1="303.33411"
       y1="235.51877"
       x2="372.18927"
       y2="219.44008"
       gradientTransform="matrix(0.96752579,0,0,0.94491285,-838.09667,30.245421)">
      <stop
         offset="0"
         stop-color="#18425D"
         id="stop390" />
      <stop
         offset="1"
         stop-color="#306782"
         id="stop391" />
    </linearGradient>
  </defs>
  <defs
     id="defs400">
    <linearGradient
       id="gradient_25"
       gradientUnits="userSpaceOnUse"
       x1="776.97437"
       y1="713.98004"
       x2="758.97205"
       y2="737.08875"
       gradientTransform="matrix(0.96752579,0,0,0.94491285,-838.09667,30.245421)">
      <stop
         offset="0"
         stop-color="#DDD13C"
         id="stop399" />
      <stop
         offset="1"
         stop-color="#B2C54D"
         id="stop400" />
    </linearGradient>
  </defs>
  <defs
     id="defs434">
    <linearGradient
       id="gradient_26"
       gradientUnits="userSpaceOnUse"
       x1="395.35977"
       y1="267.63287"
       x2="424.90726"
       y2="261.08167"
       gradientTransform="matrix(0.96752579,0,0,0.94491285,-838.09667,30.245421)">
      <stop
         offset="0"
         stop-color="#4A6371"
         id="stop433" />
      <stop
         offset="1"
         stop-color="#377991"
         id="stop434" />
    </linearGradient>
  </defs>
  <defs
     id="defs481">
    <linearGradient
       id="gradient_27"
       gradientUnits="userSpaceOnUse"
       x1="356.26559"
       y1="425.21335"
       x2="374.32184"
       y2="436.14218"
       gradientTransform="matrix(0.96752579,0,0,0.94491285,-838.09667,30.245421)">
      <stop
         offset="0"
         stop-color="#706869"
         id="stop480" />
      <stop
         offset="1"
         stop-color="#496474"
         id="stop481" />
    </linearGradient>
  </defs>
  <defs
     id="defs501">
    <linearGradient
       id="gradient_28"
       gradientUnits="userSpaceOnUse"
       x1="395.13849"
       y1="422.35019"
       x2="385.59171"
       y2="412.89743"
       gradientTransform="matrix(0.96752579,0,0,0.94491285,-838.09667,30.245421)">
      <stop
         offset="0"
         stop-color="#9E745D"
         id="stop500" />
      <stop
         offset="1"
         stop-color="#836963"
         id="stop501" />
    </linearGradient>
  </defs>
  <circle
     style="fill:#4d4d4d;stroke:#000000;stroke-width:18.1417;stroke-dasharray:none"
     id="path1"
     cx="419.0415"
     cy="419.04153"
     r="399.82031" />
  <path
     id="path2"
     style="fill:url(#linearGradient34);stroke:#ffffff;stroke-width:3.55802;stroke-dasharray:none;stroke-opacity:1"
     d="m 504.14559,95.029134 a 23.984751,23.984751 0 0 0 -23.98437,23.984366 23.984751,23.984751 0 0 0 5.50683,15.23767 l -38.43508,49.41869 a 23.984751,23.984751 0 0 0 -13.28625,-4.01744 23.984751,23.984751 0 0 0 -23.98437,23.98437 23.984751,23.984751 0 0 0 0.33432,3.82397 l -41.42515,12.10112 a 23.984751,23.984751 0 0 0 -19.54809,-10.09898 23.984751,23.984751 0 0 0 -0.77193,0.0544 l -9.33456,-50.10421 a 23.984751,23.984751 0 0 0 14.85829,-22.12868 23.984751,23.984751 0 0 0 -23.98437,-23.98437 23.984751,23.984751 0 0 0 -23.98436,23.98437 23.984751,23.984751 0 0 0 4.5452,13.953 l -44.56922,68.93673 a 23.984751,23.984751 0 0 0 -7.15211,-1.09499 23.984751,23.984751 0 0 0 -18.71794,9.06786 l -57.14552,-32.00232 a 23.984751,23.984751 0 0 0 0.80011,-5.97073 23.984751,23.984751 0 0 0 -23.98437,-23.98436 23.984751,23.984751 0 0 0 -23.98436,23.98436 23.984751,23.984751 0 0 0 23.98436,23.98437 23.984751,23.984751 0 0 0 18.94145,-9.36649 l 57.00465,31.92155 a 23.984751,23.984751 0 0 0 -0.88275,6.35013 23.984751,23.984751 0 0 0 23.98437,23.98437 23.984751,23.984751 0 0 0 23.98436,-23.98437 23.984751,23.984751 0 0 0 -8.4011,-18.22398 l 43.31647,-66.99282 a 23.984751,23.984751 0 0 0 11.94523,3.39951 l 9.40404,50.48173 a 23.984751,23.984751 0 0 0 -13.84031,21.71928 23.984751,23.984751 0 0 0 2.48484,10.54598 l -74.27264,72.94852 a 23.984751,23.984751 0 0 0 -10.96857,-2.66138 23.984751,23.984751 0 0 0 -23.98437,23.98436 23.984751,23.984751 0 0 0 23.98437,23.98437 23.984751,23.984751 0 0 0 23.33263,-18.69541 l 49.07309,4.62971 a 23.984751,23.984751 0 0 0 23.75711,20.7971 23.984751,23.984751 0 0 0 23.98436,-23.98437 23.984751,23.984751 0 0 0 -14.37935,-21.96907 l 2.71585,-65.71941 a 23.984751,23.984751 0 0 0 22.24141,-23.8604 23.984751,23.984751 0 0 0 -0.5334,-5.00723 l 40.9293,-11.9565 a 23.984751,23.984751 0 0 0 13.14915,10.04075 l -8.43867,78.3558 a 23.984751,23.984751 0 0 0 -20.95298,23.76838 23.984751,23.984751 0 0 0 23.98436,23.98437 23.984751,23.984751 0 0 0 23.98437,-23.98437 23.984751,23.984751 0 0 0 -3.80144,-12.9463 l 64.2826,-66.19271 a 23.984751,23.984751 0 0 0 11.6973,3.11403 23.984751,23.984751 0 0 0 18.46815,-8.73355 l 73.61527,49.29661 a 23.984751,23.984751 0 0 0 -1.63402,8.53633 23.984751,23.984751 0 0 0 23.98437,23.98436 23.984751,23.984751 0 0 0 23.98437,-23.98436 23.984751,23.984751 0 0 0 -9.49984,-19.11049 L 686.3873,206.5686 a 23.984751,23.984751 0 0 0 6.23743,0.85833 23.984751,23.984751 0 0 0 0.24229,-0.0169 l 27.28996,163.73787 a 23.984751,23.984751 0 0 0 -16.89799,22.89128 23.984751,23.984751 0 0 0 0.29863,3.66621 l -54.91048,14.3925 a 23.984751,23.984751 0 0 0 -21.41313,-13.19422 23.984751,23.984751 0 0 0 -6.51728,0.91843 l -31.04069,-45.00871 a 23.984751,23.984751 0 0 0 5.76789,-15.58701 23.984751,23.984751 0 0 0 -23.98436,-23.98437 23.984751,23.984751 0 0 0 -23.75898,20.83466 l -32.50755,3.48403 a 23.984751,23.984751 0 0 0 -20.66374,-11.81752 23.984751,23.984751 0 0 0 -23.98436,23.98437 23.984751,23.984751 0 0 0 0.0564,0.77569 l -108.1043,53.67464 a 23.984751,23.984751 0 0 0 -15.09682,-5.35095 23.984751,23.984751 0 0 0 -21.15582,12.81108 l -56.18952,-1.57392 a 23.984751,23.984751 0 0 0 -23.62563,-19.89181 23.984751,23.984751 0 0 0 -15.63961,5.80734 l -72.09019,-62.17153 a 23.984751,23.984751 0 0 0 1.90635,-9.26506 23.984751,23.984751 0 0 0 -23.98436,-23.98436 23.984751,23.984751 0 0 0 -23.98436,23.98436 23.984751,23.984751 0 0 0 23.98436,23.98436 23.984751,23.984751 0 0 0 0.73437,-0.0526 l 4.37992,43.32961 a 23.984751,23.984751 0 0 0 -15.45368,22.35225 23.984751,23.984751 0 0 0 23.98437,23.98436 23.984751,23.984751 0 0 0 20.78958,-12.13681 l 36.75974,18.26531 -83.56963,67.31961 a 23.984751,23.984751 0 0 0 -13.40645,-4.09819 23.984751,23.984751 0 0 0 -23.98437,23.98437 23.984751,23.984751 0 0 0 23.98437,23.98436 23.984751,23.984751 0 0 0 9.44161,-1.97209 l 64.18682,64.18494 a 23.984751,23.984751 0 0 0 -1.44997,8.04236 23.984751,23.984751 0 0 0 23.98437,23.98437 23.984751,23.984751 0 0 0 23.98436,-23.98437 23.984751,23.984751 0 0 0 -21.28918,-23.82659 l 7.58973,-54.14231 a 23.984751,23.984751 0 0 0 0.293,0.0207 23.984751,23.984751 0 0 0 11.6203,-3.07271 l 49.55574,48.40257 a 23.984751,23.984751 0 0 0 -2.46042,10.50089 23.984751,23.984751 0 0 0 23.98436,23.98437 23.984751,23.984751 0 0 0 23.98437,-23.98437 23.984751,23.984751 0 0 0 -0.96163,-6.70698 l 25.44934,-14.44508 a 23.984751,23.984751 0 0 0 9.9243,8.38231 l -37.61618,92.09658 a 23.984751,23.984751 0 0 0 -4.43251,-0.41697 23.984751,23.984751 0 0 0 -23.98437,23.98437 23.984751,23.984751 0 0 0 23.98437,23.98437 23.984751,23.984751 0 0 0 23.01334,-17.22856 l 96.71878,8.11187 a 23.984751,23.984751 0 0 0 23.55049,19.6946 23.984751,23.984751 0 0 0 23.98437,-23.98437 23.984751,23.984751 0 0 0 -23.98437,-23.98436 23.984751,23.984751 0 0 0 -3.89722,0.34935 l -18.65972,-31.23603 a 23.984751,23.984751 0 0 0 8.15693,-9.00587 l 90.55083,12.75285 a 23.984751,23.984751 0 0 0 23.85853,22.21887 23.984751,23.984751 0 0 0 23.98436,-23.98437 23.984751,23.984751 0 0 0 -3.46524,-12.41289 l 65.65367,-54.60809 a 23.984751,23.984751 0 0 0 13.83655,4.4588 23.984751,23.984751 0 0 0 23.98437,-23.98436 23.984751,23.984751 0 0 0 -23.98437,-23.98437 23.984751,23.984751 0 0 0 -15.79549,5.94633 l -60.67086,-46.80426 a 23.984751,23.984751 0 0 0 3.32626,-12.08797 23.984751,23.984751 0 0 0 -23.98437,-23.98436 23.984751,23.984751 0 0 0 -9.79659,2.10544 l -18.13571,-30.78901 a 23.984751,23.984751 0 0 0 6.72014,-16.56931 23.984751,23.984751 0 0 0 -23.33076,-23.96933 l -12.59132,-36.59447 a 23.984751,23.984751 0 0 0 12.843,-21.1746 23.984751,23.984751 0 0 0 -0.17467,-2.83229 l 30.03961,-3.21921 a 23.984751,23.984751 0 0 0 23.08096,17.5347 23.984751,23.984751 0 0 0 10.59293,-2.51113 l 30.07718,43.61134 a 23.984751,23.984751 0 0 0 -8.88004,18.57708 23.984751,23.984751 0 0 0 23.98437,23.98437 23.984751,23.984751 0 0 0 23.98436,-23.98437 23.984751,23.984751 0 0 0 -0.0526,-1.50818 l 55.76694,-14.61787 a 23.984751,23.984751 0 0 0 20.31064,11.26157 23.984751,23.984751 0 0 0 23.98437,-23.98437 23.984751,23.984751 0 0 0 -21.48263,-23.851 L 702.2767,205.37598 a 23.984751,23.984751 0 0 0 14.3324,-21.93339 23.984751,23.984751 0 0 0 -23.98437,-23.98436 23.984751,23.984751 0 0 0 -23.98436,23.98436 23.984751,23.984751 0 0 0 9.16364,18.78932 l -39.95453,76.22219 a 23.984751,23.984751 0 0 0 -5.80733,-0.71559 23.984751,23.984751 0 0 0 -17.18347,7.3343 l -74.22945,-49.70605 a 23.984751,23.984751 0 0 0 0.96352,-6.72763 23.984751,23.984751 0 0 0 -0.58224,-5.22135 l 34.93227,-23.77588 a 23.984751,23.984751 0 0 0 16.67261,6.82343 23.984751,23.984751 0 0 0 23.98437,-23.98436 23.984751,23.984751 0 0 0 -23.98437,-23.98437 23.984751,23.984751 0 0 0 -15.92884,6.07967 l -50.05163,-37.40208 a 23.984751,23.984751 0 0 0 1.49503,-8.16069 23.984751,23.984751 0 0 0 -23.98436,-23.984366 z m 17.44078,40.377116 49.34168,36.87244 a 23.984751,23.984751 0 0 0 -2.29703,10.20228 23.984751,23.984751 0 0 0 1.88946,9.22186 l -33.52928,22.81801 a 23.984751,23.984751 0 0 0 -19.38282,-9.86608 23.984751,23.984751 0 0 0 -21.56526,13.55858 L 457.81088,205.314 a 23.984751,23.984751 0 0 0 0.12021,-1.67721 23.984751,23.984751 0 0 0 -3.88033,-13.07026 l 39.11498,-50.29015 a 23.984751,23.984751 0 0 0 10.97985,2.72148 23.984751,23.984751 0 0 0 17.44078,-7.59161 z m -66.36362,79.18597 38.47827,12.97822 a 23.984751,23.984751 0 0 0 -0.077,1.06869 23.984751,23.984751 0 0 0 5.00347,14.56528 l -63.70975,65.60484 a 23.984751,23.984751 0 0 0 -6.90795,-3.22108 l 8.41612,-78.14357 a 23.984751,23.984751 0 0 0 18.79686,-12.85238 z m -121.48446,37.07152 a 23.984751,23.984751 0 0 0 7.755,4.39681 l -2.68391,64.95312 a 23.984751,23.984751 0 0 0 -0.0639,-0.002 23.984751,23.984751 0 0 0 -23.08848,17.57601 l -49.49192,-4.67103 a 23.984751,23.984751 0 0 0 -5.07296,-10.90472 z m -180.5213,92.11723 71.70892,61.83721 a 23.984751,23.984751 0 0 0 -2.48108,10.53847 23.984751,23.984751 0 0 0 4.87764,14.39813 l -11.26157,9.07348 -41.99611,-20.86846 a 23.984751,23.984751 0 0 0 0.18594,-2.60315 23.984751,23.984751 0 0 0 -23.01146,-23.96183 l -4.44566,-43.94941 a 23.984751,23.984751 0 0 0 6.42338,-4.46444 z m 314.12377,21.07694 -27.73884,34.31999 a 23.984751,23.984751 0 0 0 -7.57846,-1.23585 23.984751,23.984751 0 0 0 -23.82471,21.75684 l -37.11472,1.35792 a 23.984751,23.984751 0 0 0 -2.37027,-7.23099 z m 9.73649,3.25113 a 23.984751,23.984751 0 0 0 17.45205,7.60287 23.984751,23.984751 0 0 0 1.89133,-0.13523 l 12.27578,35.6798 a 23.984751,23.984751 0 0 0 -14.14833,15.67153 l -38.57782,-6.29754 a 23.984751,23.984751 0 0 0 -7.94846,-16.5693 z m -207.36425,53.56382 53.81926,1.51006 a 23.984751,23.984751 0 0 0 -0.11645,1.62838 23.984751,23.984751 0 0 0 23.98436,23.98437 23.984751,23.984751 0 0 0 10.77324,-2.6088 l 43.87618,49.6497 a 23.984751,23.984751 0 0 0 -2.42098,5.24763 l -71.64882,-11.93959 a 23.984751,23.984751 0 0 0 0.13147,-1.82747 23.984751,23.984751 0 0 0 -23.98436,-23.98437 23.984751,23.984751 0 0 0 -19.63826,10.29807 l -44.0884,-21.90897 3.72819,-11.74614 a 23.984751,23.984751 0 0 0 2.30077,0.16528 23.984751,23.984751 0 0 0 23.2838,-18.46815 z m 139.52062,7.61039 a 23.984751,23.984751 0 0 0 22.78984,16.62753 23.984751,23.984751 0 0 0 0.73437,-0.0526 l 31.1083,57.15115 -17.9385,0.77005 a 23.984751,23.984751 0 0 0 -23.52045,-19.29078 23.984751,23.984751 0 0 0 -13.70133,4.35737 l -42.96337,-48.61669 a 23.984751,23.984751 0 0 0 4.86073,-9.53364 z m 45.26227,0.85082 39.34975,6.42525 a 23.984751,23.984751 0 0 0 10.74883,17.04824 l -23.20867,48.65238 -6.81968,0.29112 -32.13942,-59.04623 a 23.984751,23.984751 0 0 0 12.06919,-13.37076 z m -219.83162,6.85723 a 23.984751,23.984751 0 0 0 0.2761,0.15026 l -3.25301,10.2511 -6.1454,-3.05392 z m -17.36752,13.99056 11.44562,5.68714 -14.39249,45.35993 a 23.984751,23.984751 0 0 0 -20.7539,23.75334 23.984751,23.984751 0 0 0 14.27042,21.90897 l -8.0142,57.15678 a 23.984751,23.984751 0 0 0 -10.21354,6.39709 L 128.271,549.87745 a 23.984751,23.984751 0 0 0 6.55297,-16.40215 23.984751,23.984751 0 0 0 -3.82209,-12.97822 z m 309.64431,4.53581 18.24276,30.97307 a 23.984751,23.984751 0 0 0 -6.15479,13.29752 l -46.76669,2.00401 21.33424,-44.71572 a 23.984751,23.984751 0 0 0 4.0118,0.37377 23.984751,23.984751 0 0 0 9.33268,-1.93265 z m -289.48393,5.48053 43.23759,21.48451 a 23.984751,23.984751 0 0 0 -0.55219,4.83443 23.984751,23.984751 0 0 0 0.46956,4.44941 l -45.66233,17.48774 a 23.984751,23.984751 0 0 0 -10.73756,-6.51541 z m 87.85001,37.44716 73.27156,12.21381 a 23.984751,23.984751 0 0 0 7.27232,15.09118 l -22.62643,26.26071 a 23.984751,23.984751 0 0 0 -14.6686,-5.01662 23.984751,23.984751 0 0 0 -8.32973,1.55701 L 322.17057,503.107 a 23.984751,23.984751 0 0 0 3.13657,-4.66164 z m -41.06453,2.22939 a 23.984751,23.984751 0 0 0 19.88429,10.62676 23.984751,23.984751 0 0 0 10.36192,-2.38529 l 37.50914,44.78708 a 23.984751,23.984751 0 0 0 -7.42633,17.2755 23.984751,23.984751 0 0 0 0.4827,4.50951 l -26.23631,14.89022 a 23.984751,23.984751 0 0 0 -18.53764,-8.76547 23.984751,23.984751 0 0 0 -15.62833,5.79982 L 236.5218,540.40202 a 23.984751,23.984751 0 0 0 5.04292,-14.61975 23.984751,23.984751 0 0 0 -1.44997,-8.20765 z m 255.53205,8.70725 a 23.984751,23.984751 0 0 0 4.0888,7.93907 l -24.16654,34.6543 a 23.984751,23.984751 0 0 0 -11.70482,-3.05768 23.984751,23.984751 0 0 0 -7.50896,1.25088 l -16.68013,-30.64439 3.77327,-7.90527 z m -70.78861,3.03326 4.02494,7.39628 -47.84289,100.28731 a 23.984751,23.984751 0 0 0 -0.83766,-0.0207 23.984751,23.984751 0 0 0 -23.98437,23.98436 23.984751,23.984751 0 0 0 23.98437,23.98437 23.984751,23.984751 0 0 0 3.90849,-0.35123 l 18.65785,31.23038 a 23.984751,23.984751 0 0 0 -10.30746,14.80194 l -96.14968,-8.0649 A 23.984751,23.984751 0 0 0 329.96315,688.5566 l 38.23974,-93.61789 a 23.984751,23.984751 0 0 0 0.3531,0.0244 23.984751,23.984751 0 0 0 23.98437,-23.98437 23.984751,23.984751 0 0 0 -2.98631,-11.57898 l 24.54594,-28.49199 a 23.984751,23.984751 0 0 0 8.30719,1.5495 23.984751,23.984751 0 0 0 23.40964,-19.05039 z m 108.01979,9.54115 61.32634,47.30949 a 23.984751,23.984751 0 0 0 -2.38717,10.36756 23.984751,23.984751 0 0 0 3.55352,12.50117 l -65.59921,54.56301 a 23.984751,23.984751 0 0 0 -13.97929,-4.502 23.984751,23.984751 0 0 0 -22.63395,16.21246 l -89.099,-12.55 a 23.984751,23.984751 0 0 0 0.12772,-1.79555 23.984751,23.984751 0 0 0 -13.60741,-21.61973 l 43.98322,-92.198 13.43838,24.68681 a 23.984751,23.984751 0 0 0 -8.12126,17.97043 23.984751,23.984751 0 0 0 23.98437,23.98436 23.984751,23.984751 0 0 0 23.98436,-23.98436 23.984751,23.984751 0 0 0 -4.96591,-14.60286 L 551.194,523.62048 a 23.984751,23.984751 0 0 0 11.61091,3.06708 23.984751,23.984751 0 0 0 14.20093,-4.73115 z" />
</svg>
